<svg style="enable-background:new 0 0 67 67;" xmlns="http://www.w3.org/2000/svg" viewBox="0 0 32 32" width="32px" height="32px"><path d="M20.787,12.276h-1.534v0.541h0.905c0,0.805-0.377,1.345-1.094,1.345c-0.566,0-0.893-0.49-0.893-1.169v-1.358 c0-0.629,0.591-0.993,0.993-0.993c0.717,0,0.993,0.629,0.993,0.629l0.541-0.365c0,0-0.264-0.905-1.534-0.905 c-1.283,0-1.723,0.918-1.723,1.534v1.635c0,0.83,0.453,1.622,1.622,1.622C21.025,14.79,20.787,13.307,20.787,12.276z M16.551,20.773c-0.616-0.666-1.446-1.748-2.125-2.967c1.132-0.277,1.974-1.345,1.974-2.402c0-1.584-1.22-2.313-2.816-2.313 c-0.905,0-2.288,0.088-3.583,0.038v0.402c0.78,0.151,1.106,0.075,1.106,1.207v5.532c0,1.144-0.327,1.056-1.106,1.207v0.415 c0.377-0.013,1.031-0.05,1.697-0.05c0.629,0,1.446,0.025,1.798,0.05v-0.415c-1.006-0.138-1.308-0.025-1.308-1.207v-2.339 c0.34,0.025,0.629,0.025,1.081,0.025c0.855,1.534,1.672,2.678,2.137,3.219c0.842,1.018,2.188,0.868,2.515,0.717v-0.377 C17.418,21.514,16.915,21.175,16.551,20.773z M13.194,17.327c-0.465,0-0.679-0.013-1.006-0.038v-3.521 c0.327-0.038,0.754-0.038,1.132-0.038c1.182,0,1.886,0.616,1.886,1.748C15.205,16.586,14.451,17.327,13.194,17.327z"/><path d="M5,5v22h22V5H5z M7,7h18v18H7V7z" style="fill-rule:evenodd;clip-rule:evenodd;"/></svg>
